G04 DipTrace 4.2.0.1*
G04 1 - Top.gbr*
%MOIN*%
G04 #@! TF.FileFunction,Copper,L1,Top*
G04 #@! TF.Part,Single*
G04 #@! TA.AperFunction,ComponentPad*
%ADD16R,0.075591X0.075591*%
%ADD17C,0.075591*%
%ADD19R,0.064961X0.064961*%
%ADD20C,0.064961*%
%ADD21C,0.05*%
%ADD22C,0.05*%
%FSLAX26Y26*%
G04*
G70*
G90*
G75*
G01*
G04 Top*
%LPD*%
D16*
X1177789Y2433953D3*
D17*
X1277789D3*
D16*
X1614063D3*
D17*
X1714063D3*
D16*
X2042042D3*
D17*
X2142042D3*
D16*
X2488978D3*
D17*
X2588978D3*
D16*
X843150Y2465980D3*
D17*
Y2365980D3*
D16*
X1695549Y694866D3*
D17*
X1795549D3*
X1895549D3*
X1995549D3*
D19*
X809302D3*
D20*
X1009302D3*
D21*
X1457374Y2101039D3*
D22*
X1157374D3*
D21*
X1862291D3*
D22*
X1562291D3*
D21*
X2290270D3*
D22*
X1990270D3*
D21*
X2737206D3*
D22*
X2437206D3*
D21*
X1021425D3*
D22*
X721425D3*
D16*
X773197Y1724434D3*
D17*
X873197D3*
X973197D3*
X1073197D3*
X1173197D3*
X1273197D3*
X1373197D3*
X1473197D3*
X1573197D3*
X1673197D3*
X1773197D3*
X1873197D3*
X1973197D3*
X2073197D3*
X2173197D3*
X2273197D3*
X2373197D3*
X2473197D3*
X2573197D3*
X2673197D3*
D16*
X773197Y995368D3*
D17*
X873197D3*
X973197D3*
X1073197D3*
X1173197D3*
X1273197D3*
X1373197D3*
X1473197D3*
X1573197D3*
X1673197D3*
X1773197D3*
X1873197D3*
X1973197D3*
X2073197D3*
X2173197D3*
X2273197D3*
X2373197D3*
X2473197D3*
X2573197D3*
X2673197D3*
D16*
X2551760Y694866D3*
D17*
X2651760D3*
M02*
