M48
INCH
T01C0.022
T02C0.0433
T03C0.0504
%
T01
X+014574Y+021010
X+015623Y+021010
X+018623Y+021010
X+019903Y+021010
X+022903Y+021010
X+024372Y+021010
X+027372Y+021010
X+011574Y+021010
X+010214Y+021010
X+007214Y+021010
T02
X+008093Y+006949
X+010093Y+006949
T03
X+011778Y+024340
X+012778Y+024340
X+016141Y+024340
X+017141Y+024340
X+020420Y+024340
X+021420Y+024340
X+024890Y+024340
X+025890Y+024340
X+025732Y+017244
X+026732Y+017244
X+024732Y+017244
X+023732Y+017244
X+022732Y+017244
X+021732Y+017244
X+020732Y+017244
X+019732Y+017244
X+018732Y+017244
X+017732Y+017244
X+016732Y+017244
X+015732Y+017244
X+014732Y+017244
X+013732Y+017244
X+012732Y+017244
X+011732Y+017244
X+010732Y+017244
X+009732Y+017244
X+008732Y+017244
X+007732Y+017244
X+008431Y+023660
X+008431Y+024660
X+008732Y+009954
X+007732Y+009954
X+009732Y+009954
X+010732Y+009954
X+011732Y+009954
X+012732Y+009954
X+013732Y+009954
X+014732Y+009954
X+015732Y+009954
X+016732Y+009954
X+017732Y+009954
X+018732Y+009954
X+019732Y+009954
X+020732Y+009954
X+021732Y+009954
X+022732Y+009954
X+023732Y+009954
X+024732Y+009954
X+025732Y+009954
X+026732Y+009954
X+026518Y+006949
X+025518Y+006949
X+019955Y+006949
X+018955Y+006949
X+017955Y+006949
X+016955Y+006949
T00
M30
