G04 DipTrace 4.2.0.1*
G04 TopAssembly.gbr*
%MOIN*%
G04 #@! TF.FileFunction,Drawing,Top*
G04 #@! TF.Part,Single*
%ADD10C,0.004724*%
%ADD18C,0.005*%
%FSLAX26Y26*%
G04*
G70*
G90*
G75*
G01*
G04 TopAssy*
%LPD*%
X1145636Y2486315D2*
D10*
X1344718D1*
Y2381591D1*
X1110860D1*
Y2451538D1*
X1145636Y2486315D1*
X1581911D2*
X1780992D1*
Y2381591D1*
X1547134D1*
Y2451538D1*
X1581911Y2486315D1*
X2009890D2*
X2208971D1*
Y2381591D1*
X1975113D1*
Y2451538D1*
X2009890Y2486315D1*
X2456825D2*
X2655907D1*
Y2381591D1*
X2422049D1*
Y2451538D1*
X2456825Y2486315D1*
X895512Y2498133D2*
Y2299051D1*
X790787D1*
Y2532909D1*
X860735D1*
X895512Y2498133D1*
X1663396Y747228D2*
X2062478D1*
Y642504D1*
X1628619D1*
Y712451D1*
X1663396Y747228D1*
X709302Y856283D2*
D18*
X1109302D1*
Y533449D1*
X709302D1*
Y856283D1*
G36*
X801428Y644866D2*
X801495Y645894D1*
X801696Y646904D1*
X802027Y647879D1*
X802483Y648803D1*
X803055Y649660D1*
X803734Y650434D1*
X804508Y651113D1*
X805365Y651685D1*
X806289Y652141D1*
X807264Y652472D1*
X808274Y652673D1*
X809302Y652740D1*
X810330Y652673D1*
X811340Y652472D1*
X812315Y652141D1*
X813239Y651685D1*
X814095Y651113D1*
X814870Y650434D1*
X815549Y649660D1*
X816121Y648803D1*
X816576Y647879D1*
X816908Y646904D1*
X817108Y645894D1*
X817176Y644866D1*
D1*
X817108Y643838D1*
X816908Y642828D1*
X816576Y641853D1*
X816121Y640929D1*
X815549Y640073D1*
X814870Y639298D1*
X814095Y638619D1*
X813239Y638047D1*
X812315Y637591D1*
X811340Y637260D1*
X810330Y637059D1*
X809302Y636992D1*
X808274Y637059D1*
X807264Y637260D1*
X806289Y637591D1*
X805365Y638047D1*
X804508Y638619D1*
X803734Y639298D1*
X803055Y640073D1*
X802483Y640929D1*
X802027Y641853D1*
X801696Y642828D1*
X801495Y643838D1*
X801428Y644866D1*
D1*
G37*
X741045Y1776796D2*
D10*
X2740126D1*
Y1672072D1*
X706268D1*
Y1742019D1*
X741045Y1776796D1*
Y1047730D2*
X2740126D1*
Y943006D1*
X706268D1*
Y1012954D1*
X741045Y1047730D1*
X2519608Y747228D2*
X2718689D1*
Y642504D1*
X2484831D1*
Y712451D1*
X2519608Y747228D1*
M02*
