G04 DipTrace 4.2.0.1*
G04 TopSilk.gbr*
%MOIN*%
G04 #@! TF.FileFunction,Legend,Top*
G04 #@! TF.Part,Single*
%ADD10C,0.004724*%
%ADD18C,0.005*%
%ADD40C,0.00772*%
%FSLAX26Y26*%
G04*
G70*
G90*
G75*
G01*
G04 TopSilk*
%LPD*%
X1110860Y2486315D2*
D10*
Y2381591D1*
X1344718D1*
Y2486315D1*
X1110860D1*
G36*
X1168104Y2503087D2*
X1168187Y2504351D1*
X1168434Y2505593D1*
X1168841Y2506793D1*
X1169401Y2507929D1*
X1170105Y2508982D1*
X1170940Y2509935D1*
X1171893Y2510770D1*
X1172946Y2511474D1*
X1174082Y2512034D1*
X1175282Y2512442D1*
X1176525Y2512689D1*
X1177789Y2512772D1*
X1179053Y2512689D1*
X1180295Y2512442D1*
X1181495Y2512034D1*
X1182631Y2511474D1*
X1183685Y2510770D1*
X1184637Y2509935D1*
X1185472Y2508982D1*
X1186176Y2507929D1*
X1186737Y2506793D1*
X1187144Y2505593D1*
X1187391Y2504351D1*
X1187474Y2503087D1*
D1*
X1187391Y2501822D1*
X1187144Y2500580D1*
X1186737Y2499380D1*
X1186176Y2498244D1*
X1185472Y2497191D1*
X1184637Y2496238D1*
X1183685Y2495403D1*
X1182631Y2494699D1*
X1181495Y2494139D1*
X1180295Y2493732D1*
X1179053Y2493484D1*
X1177789Y2493402D1*
X1176525Y2493484D1*
X1175282Y2493732D1*
X1174082Y2494139D1*
X1172946Y2494699D1*
X1171893Y2495403D1*
X1170940Y2496238D1*
X1170105Y2497191D1*
X1169401Y2498244D1*
X1168841Y2499380D1*
X1168434Y2500580D1*
X1168187Y2501822D1*
X1168104Y2503087D1*
D1*
G37*
X1547134Y2486315D2*
D10*
Y2381591D1*
X1780992D1*
Y2486315D1*
X1547134D1*
G36*
X1604378Y2503087D2*
X1604461Y2504351D1*
X1604708Y2505593D1*
X1605115Y2506793D1*
X1605676Y2507929D1*
X1606379Y2508982D1*
X1607215Y2509935D1*
X1608167Y2510770D1*
X1609220Y2511474D1*
X1610357Y2512034D1*
X1611556Y2512442D1*
X1612799Y2512689D1*
X1614063Y2512772D1*
X1615327Y2512689D1*
X1616570Y2512442D1*
X1617769Y2512034D1*
X1618906Y2511474D1*
X1619959Y2510770D1*
X1620911Y2509935D1*
X1621747Y2508982D1*
X1622450Y2507929D1*
X1623011Y2506793D1*
X1623418Y2505593D1*
X1623665Y2504351D1*
X1623748Y2503087D1*
D1*
X1623665Y2501822D1*
X1623418Y2500580D1*
X1623011Y2499380D1*
X1622450Y2498244D1*
X1621747Y2497191D1*
X1620911Y2496238D1*
X1619959Y2495403D1*
X1618906Y2494699D1*
X1617769Y2494139D1*
X1616570Y2493732D1*
X1615327Y2493484D1*
X1614063Y2493402D1*
X1612799Y2493484D1*
X1611556Y2493732D1*
X1610357Y2494139D1*
X1609220Y2494699D1*
X1608167Y2495403D1*
X1607215Y2496238D1*
X1606379Y2497191D1*
X1605676Y2498244D1*
X1605115Y2499380D1*
X1604708Y2500580D1*
X1604461Y2501822D1*
X1604378Y2503087D1*
D1*
G37*
X1975113Y2486315D2*
D10*
Y2381591D1*
X2208971D1*
Y2486315D1*
X1975113D1*
G36*
X2032357Y2503087D2*
X2032440Y2504351D1*
X2032687Y2505593D1*
X2033094Y2506793D1*
X2033655Y2507929D1*
X2034358Y2508982D1*
X2035194Y2509935D1*
X2036146Y2510770D1*
X2037199Y2511474D1*
X2038336Y2512034D1*
X2039535Y2512442D1*
X2040778Y2512689D1*
X2042042Y2512772D1*
X2043306Y2512689D1*
X2044549Y2512442D1*
X2045748Y2512034D1*
X2046885Y2511474D1*
X2047938Y2510770D1*
X2048890Y2509935D1*
X2049726Y2508982D1*
X2050429Y2507929D1*
X2050990Y2506793D1*
X2051397Y2505593D1*
X2051644Y2504351D1*
X2051727Y2503087D1*
D1*
X2051644Y2501822D1*
X2051397Y2500580D1*
X2050990Y2499380D1*
X2050429Y2498244D1*
X2049726Y2497191D1*
X2048890Y2496238D1*
X2047938Y2495403D1*
X2046885Y2494699D1*
X2045748Y2494139D1*
X2044549Y2493732D1*
X2043306Y2493484D1*
X2042042Y2493402D1*
X2040778Y2493484D1*
X2039535Y2493732D1*
X2038336Y2494139D1*
X2037199Y2494699D1*
X2036146Y2495403D1*
X2035194Y2496238D1*
X2034358Y2497191D1*
X2033655Y2498244D1*
X2033094Y2499380D1*
X2032687Y2500580D1*
X2032440Y2501822D1*
X2032357Y2503087D1*
D1*
G37*
X2422049Y2486315D2*
D10*
Y2381591D1*
X2655907D1*
Y2486315D1*
X2422049D1*
G36*
X2479293Y2503087D2*
X2479376Y2504351D1*
X2479623Y2505593D1*
X2480030Y2506793D1*
X2480590Y2507929D1*
X2481294Y2508982D1*
X2482129Y2509935D1*
X2483082Y2510770D1*
X2484135Y2511474D1*
X2485271Y2512034D1*
X2486471Y2512442D1*
X2487714Y2512689D1*
X2488978Y2512772D1*
X2490242Y2512689D1*
X2491484Y2512442D1*
X2492684Y2512034D1*
X2493820Y2511474D1*
X2494874Y2510770D1*
X2495826Y2509935D1*
X2496661Y2508982D1*
X2497365Y2507929D1*
X2497925Y2506793D1*
X2498333Y2505593D1*
X2498580Y2504351D1*
X2498663Y2503087D1*
D1*
X2498580Y2501822D1*
X2498333Y2500580D1*
X2497925Y2499380D1*
X2497365Y2498244D1*
X2496661Y2497191D1*
X2495826Y2496238D1*
X2494874Y2495403D1*
X2493820Y2494699D1*
X2492684Y2494139D1*
X2491484Y2493732D1*
X2490242Y2493484D1*
X2488978Y2493402D1*
X2487714Y2493484D1*
X2486471Y2493732D1*
X2485271Y2494139D1*
X2484135Y2494699D1*
X2483082Y2495403D1*
X2482129Y2496238D1*
X2481294Y2497191D1*
X2480590Y2498244D1*
X2480030Y2499380D1*
X2479623Y2500580D1*
X2479376Y2501822D1*
X2479293Y2503087D1*
D1*
G37*
X895512Y2532909D2*
D10*
X790787D1*
Y2299051D1*
X895512D1*
Y2532909D1*
G36*
X912283Y2475665D2*
X913548Y2475582D1*
X914790Y2475335D1*
X915990Y2474928D1*
X917126Y2474368D1*
X918179Y2473664D1*
X919132Y2472829D1*
X919967Y2471876D1*
X920671Y2470823D1*
X921231Y2469687D1*
X921638Y2468487D1*
X921886Y2467244D1*
X921969Y2465980D1*
X921886Y2464716D1*
X921638Y2463474D1*
X921231Y2462274D1*
X920671Y2461138D1*
X919967Y2460084D1*
X919132Y2459132D1*
X918179Y2458297D1*
X917126Y2457593D1*
X915990Y2457033D1*
X914790Y2456625D1*
X913548Y2456378D1*
X912283Y2456295D1*
D1*
X911019Y2456378D1*
X909777Y2456625D1*
X908577Y2457033D1*
X907441Y2457593D1*
X906388Y2458297D1*
X905435Y2459132D1*
X904600Y2460084D1*
X903896Y2461138D1*
X903336Y2462274D1*
X902928Y2463474D1*
X902681Y2464716D1*
X902598Y2465980D1*
X902681Y2467244D1*
X902928Y2468487D1*
X903336Y2469687D1*
X903896Y2470823D1*
X904600Y2471876D1*
X905435Y2472829D1*
X906388Y2473664D1*
X907441Y2474368D1*
X908577Y2474928D1*
X909777Y2475335D1*
X911019Y2475582D1*
X912283Y2475665D1*
D1*
G37*
X1628619Y747228D2*
D10*
Y642504D1*
X2062478D1*
Y747228D1*
X1628619D1*
G36*
X1685864Y764000D2*
X1685946Y765264D1*
X1686194Y766507D1*
X1686601Y767706D1*
X1687161Y768843D1*
X1687865Y769896D1*
X1688700Y770848D1*
X1689653Y771684D1*
X1690706Y772387D1*
X1691842Y772948D1*
X1693042Y773355D1*
X1694284Y773602D1*
X1695549Y773685D1*
X1696813Y773602D1*
X1698055Y773355D1*
X1699255Y772948D1*
X1700391Y772387D1*
X1701444Y771684D1*
X1702397Y770848D1*
X1703232Y769896D1*
X1703936Y768843D1*
X1704496Y767706D1*
X1704904Y766507D1*
X1705151Y765264D1*
X1705234Y764000D1*
D1*
X1705151Y762736D1*
X1704904Y761493D1*
X1704496Y760294D1*
X1703936Y759157D1*
X1703232Y758104D1*
X1702397Y757152D1*
X1701444Y756316D1*
X1700391Y755613D1*
X1699255Y755052D1*
X1698055Y754645D1*
X1696813Y754398D1*
X1695549Y754315D1*
X1694284Y754398D1*
X1693042Y754645D1*
X1691842Y755052D1*
X1690706Y755613D1*
X1689653Y756316D1*
X1688700Y757152D1*
X1687865Y758104D1*
X1687161Y759157D1*
X1686601Y760294D1*
X1686194Y761493D1*
X1685946Y762736D1*
X1685864Y764000D1*
D1*
G37*
X709302Y856283D2*
D18*
X1109302D1*
Y572819D1*
Y533449D1*
X709302D1*
Y572819D1*
Y856283D1*
X1387524Y2071039D2*
D10*
Y2131039D1*
X1227224Y2071039D2*
X1387524D1*
X1227224D2*
Y2131039D1*
X1387524D1*
X1792441Y2071039D2*
Y2131039D1*
X1632142Y2071039D2*
X1792441D1*
X1632142D2*
Y2131039D1*
X1792441D1*
X2220420Y2071039D2*
Y2131039D1*
X2060121Y2071039D2*
X2220420D1*
X2060121D2*
Y2131039D1*
X2220420D1*
X2667356Y2071039D2*
Y2131039D1*
X2507056Y2071039D2*
X2667356D1*
X2507056D2*
Y2131039D1*
X2667356D1*
X951575Y2071039D2*
Y2131039D1*
X791276Y2071039D2*
X951575D1*
X791276D2*
Y2131039D1*
X951575D1*
X706268Y1776796D2*
Y1672072D1*
X2740126D1*
Y1776796D1*
X706268D1*
G36*
X763512Y1793568D2*
X763595Y1794832D1*
X763842Y1796074D1*
X764249Y1797274D1*
X764809Y1798410D1*
X765513Y1799464D1*
X766348Y1800416D1*
X767301Y1801251D1*
X768354Y1801955D1*
X769491Y1802516D1*
X770690Y1802923D1*
X771933Y1803170D1*
X773197Y1803253D1*
X774461Y1803170D1*
X775704Y1802923D1*
X776903Y1802516D1*
X778039Y1801955D1*
X779093Y1801251D1*
X780045Y1800416D1*
X780881Y1799464D1*
X781584Y1798410D1*
X782145Y1797274D1*
X782552Y1796074D1*
X782799Y1794832D1*
X782882Y1793568D1*
D1*
X782799Y1792304D1*
X782552Y1791061D1*
X782145Y1789861D1*
X781584Y1788725D1*
X780881Y1787672D1*
X780045Y1786719D1*
X779093Y1785884D1*
X778039Y1785180D1*
X776903Y1784620D1*
X775704Y1784213D1*
X774461Y1783966D1*
X773197Y1783883D1*
X771933Y1783966D1*
X770690Y1784213D1*
X769491Y1784620D1*
X768354Y1785180D1*
X767301Y1785884D1*
X766348Y1786719D1*
X765513Y1787672D1*
X764809Y1788725D1*
X764249Y1789861D1*
X763842Y1791061D1*
X763595Y1792304D1*
X763512Y1793568D1*
D1*
G37*
X706268Y1047730D2*
D10*
Y943006D1*
X2740126D1*
Y1047730D1*
X706268D1*
G36*
X763512Y1064502D2*
X763595Y1065766D1*
X763842Y1067009D1*
X764249Y1068208D1*
X764809Y1069345D1*
X765513Y1070398D1*
X766348Y1071350D1*
X767301Y1072186D1*
X768354Y1072890D1*
X769491Y1073450D1*
X770690Y1073857D1*
X771933Y1074104D1*
X773197Y1074187D1*
X774461Y1074104D1*
X775704Y1073857D1*
X776903Y1073450D1*
X778039Y1072890D1*
X779093Y1072186D1*
X780045Y1071350D1*
X780881Y1070398D1*
X781584Y1069345D1*
X782145Y1068208D1*
X782552Y1067009D1*
X782799Y1065766D1*
X782882Y1064502D1*
D1*
X782799Y1063238D1*
X782552Y1061995D1*
X782145Y1060796D1*
X781584Y1059660D1*
X780881Y1058606D1*
X780045Y1057654D1*
X779093Y1056818D1*
X778039Y1056115D1*
X776903Y1055554D1*
X775704Y1055147D1*
X774461Y1054900D1*
X773197Y1054817D1*
X771933Y1054900D1*
X770690Y1055147D1*
X769491Y1055554D1*
X768354Y1056115D1*
X767301Y1056818D1*
X766348Y1057654D1*
X765513Y1058606D1*
X764809Y1059660D1*
X764249Y1060796D1*
X763842Y1061995D1*
X763595Y1063238D1*
X763512Y1064502D1*
D1*
G37*
X2484831Y747228D2*
D10*
Y642504D1*
X2718689D1*
Y747228D1*
X2484831D1*
G36*
X2542075Y764000D2*
X2542158Y765264D1*
X2542405Y766507D1*
X2542812Y767706D1*
X2543372Y768843D1*
X2544076Y769896D1*
X2544911Y770848D1*
X2545864Y771684D1*
X2546917Y772387D1*
X2548054Y772948D1*
X2549253Y773355D1*
X2550496Y773602D1*
X2551760Y773685D1*
X2553024Y773602D1*
X2554267Y773355D1*
X2555466Y772948D1*
X2556602Y772387D1*
X2557656Y771684D1*
X2558608Y770848D1*
X2559444Y769896D1*
X2560147Y768843D1*
X2560708Y767706D1*
X2561115Y766507D1*
X2561362Y765264D1*
X2561445Y764000D1*
D1*
X2561362Y762736D1*
X2561115Y761493D1*
X2560708Y760294D1*
X2560147Y759157D1*
X2559444Y758104D1*
X2558608Y757152D1*
X2557656Y756316D1*
X2556602Y755613D1*
X2555466Y755052D1*
X2554267Y754645D1*
X2553024Y754398D1*
X2551760Y754315D1*
X2550496Y754398D1*
X2549253Y754645D1*
X2548054Y755052D1*
X2546917Y755613D1*
X2545864Y756316D1*
X2544911Y757152D1*
X2544076Y758104D1*
X2543372Y759157D1*
X2542812Y760294D1*
X2542405Y761493D1*
X2542158Y762736D1*
X2542075Y764000D1*
D1*
G37*
X1159852Y2585995D2*
D40*
X1128735D1*
Y2535755D1*
Y2562063D2*
X1147859D1*
X1175291Y2585995D2*
Y2535755D1*
X1203976D1*
X1250477Y2585995D2*
X1219415D1*
Y2535755D1*
X1250477D1*
X1219415Y2562063D2*
X1238539D1*
X1265916Y2585995D2*
X1299409Y2535755D1*
Y2585995D2*
X1265916Y2535755D1*
X1314849Y2576378D2*
X1319657Y2578810D1*
X1326842Y2585939D1*
Y2535755D1*
X1585376Y2585995D2*
X1554260D1*
Y2535755D1*
Y2562063D2*
X1573383D1*
X1600816Y2585995D2*
Y2535755D1*
X1629500D1*
X1676001Y2585995D2*
X1644940D1*
Y2535755D1*
X1676001D1*
X1644940Y2562063D2*
X1664063D1*
X1691440Y2585995D2*
X1724934Y2535755D1*
Y2585995D2*
X1691440Y2535755D1*
X1742805Y2574001D2*
Y2576378D1*
X1745181Y2581186D1*
X1747558Y2583563D1*
X1752367Y2585939D1*
X1761928D1*
X1766681Y2583563D1*
X1769058Y2581186D1*
X1771490Y2576378D1*
Y2571625D1*
X1769058Y2566816D1*
X1764305Y2559686D1*
X1740373Y2535755D1*
X1773866D1*
X2013355Y2585995D2*
X1982239D1*
Y2535755D1*
Y2562063D2*
X2001362D1*
X2028795Y2585995D2*
Y2535755D1*
X2057479D1*
X2103980Y2585995D2*
X2072919D1*
Y2535755D1*
X2103980D1*
X2072919Y2562063D2*
X2092042D1*
X2119419Y2585995D2*
X2152913Y2535755D1*
Y2585995D2*
X2119419Y2535755D1*
X2173160Y2585939D2*
X2199414D1*
X2185099Y2566816D1*
X2192284D1*
X2197037Y2564440D1*
X2199414Y2562063D1*
X2201845Y2554878D1*
Y2550125D1*
X2199414Y2542940D1*
X2194660Y2538131D1*
X2187475Y2535755D1*
X2180290D1*
X2173160Y2538131D1*
X2170784Y2540563D1*
X2168352Y2545316D1*
X2459103Y2585995D2*
X2427986D1*
Y2535755D1*
Y2562063D2*
X2447109D1*
X2474542Y2585995D2*
Y2535755D1*
X2503227D1*
X2549728Y2585995D2*
X2518666D1*
Y2535755D1*
X2549728D1*
X2518666Y2562063D2*
X2537789D1*
X2565167Y2585995D2*
X2598660Y2535755D1*
Y2585995D2*
X2565167Y2535755D1*
X2638031D2*
Y2585939D1*
X2614099Y2552501D1*
X2649969D1*
X995192Y2494667D2*
Y2525784D1*
X944952D1*
X971260D2*
Y2506660D1*
X995192Y2479228D2*
X944952D1*
Y2450543D1*
X995192Y2404042D2*
Y2435104D1*
X944952D1*
Y2404042D1*
X971260Y2435104D2*
Y2415980D1*
X995192Y2388603D2*
X944952Y2355110D1*
X995192D2*
X944952Y2388603D1*
X995136Y2310985D2*
Y2334862D1*
X973636Y2337238D1*
X976013Y2334862D1*
X978445Y2327677D1*
Y2320547D1*
X976013Y2313362D1*
X971260Y2308554D1*
X964075Y2306177D1*
X959322D1*
X952137Y2308554D1*
X947328Y2313362D1*
X944952Y2320547D1*
Y2327677D1*
X947328Y2334862D1*
X949760Y2337238D1*
X954513Y2339670D1*
X1771017Y846908D2*
X1766208Y844532D1*
X1761455Y839723D1*
X1759023Y834970D1*
X1756647Y827785D1*
Y815791D1*
X1759023Y808662D1*
X1761455Y803853D1*
X1766208Y799100D1*
X1771017Y796668D1*
X1780578D1*
X1785331Y799100D1*
X1790140Y803853D1*
X1792517Y808662D1*
X1794893Y815791D1*
Y827785D1*
X1792517Y834970D1*
X1790140Y839723D1*
X1785331Y844532D1*
X1780578Y846908D1*
X1771017D1*
X1810332D2*
Y796668D1*
X1839017D1*
X1885518Y846908D2*
X1854456D1*
Y796668D1*
X1885518D1*
X1854456Y822976D2*
X1873580D1*
X1900957Y846908D2*
Y796668D1*
X1917704D1*
X1924889Y799100D1*
X1929697Y803853D1*
X1932074Y808662D1*
X1934451Y815791D1*
Y827785D1*
X1932074Y834970D1*
X1929697Y839723D1*
X1924889Y844532D1*
X1917704Y846908D1*
X1900957D1*
X878839Y913041D2*
X900394D1*
X907524Y915417D1*
X909956Y917849D1*
X912332Y922602D1*
Y929787D1*
X909956Y934541D1*
X907524Y936972D1*
X900394Y939349D1*
X878839D1*
Y889109D1*
X927771Y929732D2*
X932580Y932164D1*
X939765Y939294D1*
Y889109D1*
X1276911Y2180331D2*
X1298411D1*
X1305596Y2182763D1*
X1308028Y2185139D1*
X1310404Y2189892D1*
Y2194701D1*
X1308028Y2199454D1*
X1305596Y2201886D1*
X1298411Y2204262D1*
X1276911D1*
Y2154022D1*
X1293658Y2180331D2*
X1310404Y2154022D1*
X1325844Y2194646D2*
X1330652Y2197077D1*
X1337837Y2204207D1*
Y2154022D1*
X1671078Y2180331D2*
X1692578D1*
X1699763Y2182763D1*
X1702195Y2185139D1*
X1704572Y2189892D1*
Y2194701D1*
X1702195Y2199454D1*
X1699763Y2201886D1*
X1692578Y2204262D1*
X1671078D1*
Y2154022D1*
X1687825Y2180331D2*
X1704572Y2154022D1*
X1722443Y2192269D2*
Y2194646D1*
X1724819Y2199454D1*
X1727196Y2201831D1*
X1732004Y2204207D1*
X1741566D1*
X1746319Y2201831D1*
X1748696Y2199454D1*
X1751128Y2194646D1*
Y2189892D1*
X1748696Y2185084D1*
X1743943Y2177954D1*
X1720011Y2154022D1*
X1753504D1*
X2099057Y2180331D2*
X2120557D1*
X2127742Y2182763D1*
X2130174Y2185139D1*
X2132551Y2189892D1*
Y2194701D1*
X2130174Y2199454D1*
X2127742Y2201886D1*
X2120557Y2204262D1*
X2099057D1*
Y2154022D1*
X2115804Y2180331D2*
X2132551Y2154022D1*
X2152798Y2204207D2*
X2179051D1*
X2164737Y2185084D1*
X2171922D1*
X2176675Y2182707D1*
X2179051Y2180331D1*
X2181483Y2173146D1*
Y2168393D1*
X2179051Y2161207D1*
X2174298Y2156399D1*
X2167113Y2154022D1*
X2159928D1*
X2152798Y2156399D1*
X2150422Y2158831D1*
X2147990Y2163584D1*
X2544805Y2180331D2*
X2566305D1*
X2573490Y2182763D1*
X2575922Y2185139D1*
X2578298Y2189892D1*
Y2194701D1*
X2575922Y2199454D1*
X2573490Y2201886D1*
X2566305Y2204262D1*
X2544805D1*
Y2154022D1*
X2561551Y2180331D2*
X2578298Y2154022D1*
X2617669D2*
Y2204207D1*
X2593737Y2170769D1*
X2629607D1*
X830212Y2180331D2*
X851712D1*
X858897Y2182763D1*
X861329Y2185139D1*
X863706Y2189892D1*
Y2194701D1*
X861329Y2199454D1*
X858897Y2201886D1*
X851712Y2204262D1*
X830212D1*
Y2154022D1*
X846959Y2180331D2*
X863706Y2154022D1*
X907830Y2204207D2*
X883953D1*
X881577Y2182707D1*
X883953Y2185084D1*
X891138Y2187516D1*
X898268D1*
X905453Y2185084D1*
X910262Y2180331D1*
X912638Y2173146D1*
Y2168393D1*
X910262Y2161207D1*
X905453Y2156399D1*
X898268Y2154022D1*
X891138D1*
X883953Y2156399D1*
X881577Y2158831D1*
X879145Y2163584D1*
X1476185Y1852544D2*
X1497685D1*
X1504870Y1854976D1*
X1507302Y1857353D1*
X1509678Y1862106D1*
Y1866914D1*
X1507302Y1871667D1*
X1504870Y1874099D1*
X1497685Y1876476D1*
X1476185D1*
Y1826236D1*
X1492932Y1852544D2*
X1509678Y1826236D1*
X1563419D2*
X1544241Y1876476D1*
X1525118Y1826236D1*
X1532303Y1842983D2*
X1556234D1*
X1612352Y1869291D2*
X1607599Y1874099D1*
X1600414Y1876476D1*
X1590852D1*
X1583667Y1874099D1*
X1578859Y1869291D1*
Y1864538D1*
X1581290Y1859729D1*
X1583667Y1857353D1*
X1588420Y1854976D1*
X1602790Y1850168D1*
X1607599Y1847791D1*
X1609975Y1845359D1*
X1612352Y1840606D1*
Y1833421D1*
X1607599Y1828668D1*
X1600414Y1826236D1*
X1590852D1*
X1583667Y1828668D1*
X1578859Y1833421D1*
X1627791Y1850168D2*
X1649346D1*
X1656476Y1852544D1*
X1658908Y1854976D1*
X1661285Y1859729D1*
Y1866914D1*
X1658908Y1871667D1*
X1656476Y1874099D1*
X1649346Y1876476D1*
X1627791D1*
Y1826236D1*
X1676724Y1876476D2*
Y1826236D1*
X1698279D1*
X1705464Y1828668D1*
X1707841Y1831044D1*
X1710217Y1835797D1*
Y1842983D1*
X1707841Y1847791D1*
X1705464Y1850168D1*
X1698279Y1852544D1*
X1705464Y1854976D1*
X1707841Y1857353D1*
X1710217Y1862106D1*
Y1866914D1*
X1707841Y1871667D1*
X1705464Y1874099D1*
X1698279Y1876476D1*
X1676724D1*
Y1852544D2*
X1698279D1*
X1756718Y1876476D2*
X1725656D1*
Y1826236D1*
X1756718D1*
X1725656Y1852544D2*
X1744780D1*
X1803219Y1876476D2*
X1772157D1*
Y1826236D1*
X1803219D1*
X1772157Y1852544D2*
X1791280D1*
X1818658D2*
X1840158D1*
X1847343Y1854976D1*
X1849775Y1857353D1*
X1852151Y1862106D1*
Y1866914D1*
X1849775Y1871667D1*
X1847343Y1874099D1*
X1840158Y1876476D1*
X1818658D1*
Y1826236D1*
X1835404Y1852544D2*
X1852151Y1826236D1*
X1867590Y1876476D2*
X1886714Y1852544D1*
Y1826236D1*
X1905837Y1876476D2*
X1886714Y1852544D1*
X1921276Y1850168D2*
X1942831D1*
X1949961Y1852544D1*
X1952393Y1854976D1*
X1954769Y1859729D1*
Y1866914D1*
X1952393Y1871667D1*
X1949961Y1874099D1*
X1942831Y1876476D1*
X1921276D1*
Y1826236D1*
X1970209Y1876476D2*
Y1826236D1*
X1462469Y1123479D2*
X1483968D1*
X1491153Y1125910D1*
X1493585Y1128287D1*
X1495962Y1133040D1*
Y1137849D1*
X1493585Y1142602D1*
X1491153Y1145034D1*
X1483968Y1147410D1*
X1462469D1*
Y1097170D1*
X1479215Y1123479D2*
X1495962Y1097170D1*
X1549703D2*
X1530524Y1147410D1*
X1511401Y1097170D1*
X1518586Y1113917D2*
X1542518D1*
X1598636Y1140225D2*
X1593882Y1145034D1*
X1586697Y1147410D1*
X1577136D1*
X1569951Y1145034D1*
X1565142Y1140225D1*
Y1135472D1*
X1567574Y1130664D1*
X1569951Y1128287D1*
X1574704Y1125910D1*
X1589074Y1121102D1*
X1593882Y1118725D1*
X1596259Y1116294D1*
X1598636Y1111540D1*
Y1104355D1*
X1593882Y1099602D1*
X1586697Y1097170D1*
X1577136D1*
X1569951Y1099602D1*
X1565142Y1104355D1*
X1614075Y1121102D2*
X1635630D1*
X1642760Y1123479D1*
X1645192Y1125910D1*
X1647568Y1130664D1*
Y1137849D1*
X1645192Y1142602D1*
X1642760Y1145034D1*
X1635630Y1147410D1*
X1614075D1*
Y1097170D1*
X1663007Y1147410D2*
Y1097170D1*
X1684563D1*
X1691748Y1099602D1*
X1694124Y1101979D1*
X1696501Y1106732D1*
Y1113917D1*
X1694124Y1118725D1*
X1691748Y1121102D1*
X1684563Y1123479D1*
X1691748Y1125910D1*
X1694124Y1128287D1*
X1696501Y1133040D1*
Y1137849D1*
X1694124Y1142602D1*
X1691748Y1145034D1*
X1684563Y1147410D1*
X1663007D1*
Y1123479D2*
X1684563D1*
X1743001Y1147410D2*
X1711940D1*
Y1097170D1*
X1743001D1*
X1711940Y1123479D2*
X1731063D1*
X1789502Y1147410D2*
X1758441D1*
Y1097170D1*
X1789502D1*
X1758441Y1123479D2*
X1777564D1*
X1804941D2*
X1826441D1*
X1833626Y1125910D1*
X1836058Y1128287D1*
X1838435Y1133040D1*
Y1137849D1*
X1836058Y1142602D1*
X1833626Y1145034D1*
X1826441Y1147410D1*
X1804941D1*
Y1097170D1*
X1821688Y1123479D2*
X1838435Y1097170D1*
X1853874Y1147410D2*
X1872997Y1123479D1*
Y1097170D1*
X1892121Y1147410D2*
X1872997Y1123479D1*
X1907560Y1121102D2*
X1929115D1*
X1936245Y1123479D1*
X1938677Y1125910D1*
X1941053Y1130664D1*
Y1137849D1*
X1938677Y1142602D1*
X1936245Y1145034D1*
X1929115Y1147410D1*
X1907560D1*
Y1097170D1*
X1956492Y1147410D2*
Y1097170D1*
X1971932Y1137793D2*
X1976740Y1140225D1*
X1983925Y1147355D1*
Y1097170D1*
X2471736Y839723D2*
X2466983Y844532D1*
X2459798Y846908D1*
X2450237D1*
X2443052Y844532D1*
X2438243Y839723D1*
Y834970D1*
X2440675Y830161D1*
X2443052Y827785D1*
X2447805Y825408D1*
X2462175Y820600D1*
X2466983Y818223D1*
X2469360Y815791D1*
X2471736Y811038D1*
Y803853D1*
X2466983Y799100D1*
X2459798Y796668D1*
X2450237D1*
X2443052Y799100D1*
X2438243Y803853D1*
X2487176Y820600D2*
X2508731D1*
X2515861Y822976D1*
X2518292Y825408D1*
X2520669Y830161D1*
Y837346D1*
X2518292Y842100D1*
X2515861Y844532D1*
X2508731Y846908D1*
X2487176D1*
Y796668D1*
X2567170Y846908D2*
X2536108D1*
Y796668D1*
X2567170D1*
X2536108Y822976D2*
X2555231D1*
X2620911Y796668D2*
X2601732Y846908D1*
X2582609Y796668D1*
X2589794Y813415D2*
X2613726D1*
X2636350Y846908D2*
Y796668D1*
X2669843Y846908D2*
X2636350Y813415D1*
X2648288Y825408D2*
X2669843Y796668D1*
X2716344Y846908D2*
X2685283D1*
Y796668D1*
X2716344D1*
X2685283Y822976D2*
X2704406D1*
X2731783D2*
X2753283D1*
X2760468Y825408D1*
X2762900Y827785D1*
X2765277Y832538D1*
Y837346D1*
X2762900Y842100D1*
X2760468Y844532D1*
X2753283Y846908D1*
X2731783D1*
Y796668D1*
X2748530Y822976D2*
X2765277Y796668D1*
M02*
